<?xml version="1.0" encoding="utf-8"?>
<!-- Generator: Adobe Illustrator 22.0.1, SVG Export Plug-In . SVG Version: 6.00 Build 0)  -->
<svg version="1.1" id="Layer_1" xmlns="http://www.w3.org/2000/svg" xmlns:xlink="http://www.w3.org/1999/xlink" x="0px" y="0px"
	 viewBox="0 0 155 30" style="enable-background:new 0 0 155 30;" xml:space="preserve">
<style type="text/css">
	.st0{fill:#332F33;}
	.st1{fill:#91288D;}
</style>
<g>
	<g>
		<path class="st0" d="M42.7,15V3.8c0-0.9-1.3-0.9-1.3,0V15c0,2.3-1.8,4.2-4,4.2c-2.2,0-4-1.9-4-4.2V3.8c0-0.9-1.3-0.9-1.3,0V15
			c0,2.3-1.8,4.2-4,4.2c-2.2,0-4-1.9-4-4.2V3.8c0-0.9-1.3-0.9-1.3,0V15v2.8c0,4.3-3.3,7.7-7.4,7.7s-7.4-3.5-7.4-7.7
			c0-4.3,3.3-7.7,7.4-7.7c0.9,0,0.9-1.4,0-1.4c-4.8,0-8.8,4.1-8.8,9.1s3.9,9.1,8.8,9.1c4.6,0,8.3-3.6,8.7-8.3c1,1.2,2.5,1.9,4.1,1.9
			c2,0,3.8-1.2,4.7-2.9c0.9,1.7,2.7,2.9,4.7,2.9C40.3,20.6,42.7,18.1,42.7,15 M44.1,15c0,3.9-3,7-6.7,7c-1.9,0-3.3-0.7-4.7-2
			c-1.4,1.2-2.8,2-4.7,2c-1.2,0-2.1-0.3-3.2-0.8c-0.4,0.9-0.8,1.8-1.4,2.6c-1.9,2.8-4.7,4.5-8.2,4.5c-3.4,0-6.5-1.8-8.3-4.5
			C5.6,22.1,5,20,5,17.8C5,12,9.5,7.3,15.1,7.3c1.4,0,2,1,2,2.1c0,1.1-0.7,2.1-2,2.1c-3.4,0-6.1,2.8-6.1,6.3c0,2.8,1.7,5.1,4.1,6
			l2,0l-2,0c0.6,0.2,1.3,0.3,1.9,0.3c0.7,0,1.3-0.1,1.9-0.3h0c2.4-0.8,4.1-3.2,4.1-6l0-2.8V3.8c0-1.4,1-2.1,2-2.1c1.1,0,2,0.7,2,2.1
			V15c0,1.5,1.2,2.8,2.7,2.8c1.5,0,2.7-1.3,2.7-2.8V3.8c0-1.4,1-2.1,2-2.1c1.1,0,2,0.7,2,2.1V15c0,1.5,1.2,2.8,2.7,2.8
			c1.5,0,2.7-1.3,2.7-2.8V3.8c0-1.4,1-2.1,2-2.1c1.1,0,2,0.7,2,2.1V15z M45.4,15V3.8c0-2.3-1.7-3.5-3.4-3.5c-1.6,0-3.4,1.2-3.4,3.5
			V15c0,0.8-0.6,1.4-1.3,1.4c-0.7,0-1.3-0.6-1.3-1.4V3.8c0-2.3-1.7-3.5-3.4-3.5c-1.6,0-3.4,1.2-3.4,3.5V15c0,0.8-0.6,1.4-1.3,1.4
			c-0.7,0-1.3-0.6-1.3-1.4V3.8c0-2.3-1.7-3.5-3.4-3.5c-1.6,0-3.4,1.2-3.4,3.5V15l0,2.8c0,2.7-2.1,4.9-4.7,4.9
			c-2.6,0-4.7-2.2-4.7-4.9s2.1-4.9,4.7-4.9c2.2,0,3.4-1.8,3.4-3.5s-1.1-3.5-3.4-3.5c-6.3,0-11.5,5.3-11.5,11.9c0,2.2,0.6,4.2,1.5,6
			h0c2,3.6,5.7,5.9,9.9,5.9s7.9-2.4,9.9-5.9h-1.3l1.3,0c0.1-0.3,0.3-0.5,0.4-0.8c0.8,0.3,1.6,0.4,2.5,0.4c1.8,0,3.4-0.6,4.7-1.6
			c1.3,1,3,1.6,4.7,1.6C41.8,23.4,45.4,19.6,45.4,15 M51.5,26.2V9.4c0-0.9-1.3-0.9-1.3,0v16.8C50.1,27.2,51.5,27.2,51.5,26.2
			 M52.8,26.2c0,1.4-1,2.1-2,2.1c-1.1,0-2-0.7-2-2.1V9.4c0-1.4,1-2.1,2-2.1c1.1,0,2,0.7,2,2.1V26.2z M54.2,26.2V9.4
			c0-2.3-1.7-3.5-3.4-3.5c-1.6,0-3.4,1.2-3.4,3.5v16.8c0,2.3,1.7,3.5,3.4,3.5C52.4,29.7,54.2,28.6,54.2,26.2 M60.2,20.6V3.8
			c0-0.9-1.3-0.9-1.3,0v16.8C58.9,21.5,60.2,21.5,60.2,20.6 M61.6,20.6c0,1.4-1,2.1-2,2.1c-1.1,0-2-0.7-2-2.1V3.8c0-1.4,1-2.1,2-2.1
			c1.1,0,2,0.7,2,2.1V20.6z M62.9,20.6V3.8c0-2.3-1.7-3.5-3.4-3.5c-1.6,0-3.4,1.2-3.4,3.5v16.8c0,2.3,1.7,3.5,3.4,3.5
			C61.2,24.1,62.9,22.9,62.9,20.6 M96,15V3.8c0-0.9-1.3-0.9-1.3,0V15c0,2.7-2.1,4.9-4.7,4.9s-4.7-2.2-4.7-4.9v-2.8
			c0-5-3.9-9.1-8.8-9.1c-4.8,0-8.8,4.1-8.8,9.1s3.9,9.1,8.8,9.1c0.9,0,0.9-1.4,0-1.4c-4.1,0-7.4-3.5-7.4-7.7c0-4.3,3.3-7.7,7.4-7.7
			c4.1,0,7.4,3.5,7.4,7.7V15c0,3.5,2.7,6.3,6.1,6.3C93.3,21.3,96,18.5,96,15 M97.3,15c0,4.3-3.3,7.7-7.4,7.7c-4.1,0-7.4-3.5-7.4-7.7
			v-2.8c0-3.5-2.7-6.3-6.1-6.3c-3.4,0-6.1,2.8-6.1,6.3c0,3.5,2.7,6.3,6.1,6.3c1.4,0,2,1,2,2.1c0,1.1-0.7,2.1-2,2.1
			c-5.6,0-10.1-4.7-10.1-10.5S70.8,1.7,76.4,1.7c5.6,0,10.1,4.7,10.1,10.5V15c0,1.9,1.5,3.5,3.4,3.5s3.4-1.6,3.4-3.5V3.8
			c0-1.4,1-2.1,2-2.1c1.1,0,2,0.7,2,2.1V15z M98.7,15V3.8c0-2.3-1.7-3.5-3.4-3.5c-1.6,0-3.4,1.2-3.4,3.5V15c0,1.2-0.9,2.1-2,2.1
			c-1.1,0-2-0.9-2-2.1v-2.8c0-6.6-5.1-11.9-11.5-11.9C70.1,0.3,65,5.6,65,12.2s5.1,11.9,11.5,11.9c2.2,0,3.4-1.8,3.4-3.5
			c0-1.7-1.1-3.5-3.4-3.5c-2.6,0-4.7-2.2-4.7-4.9c0-2.7,2.1-4.9,4.7-4.9c2.6,0,4.7,2.2,4.7,4.9V15c0,5,3.9,9.1,8.8,9.1
			C94.7,24.1,98.7,20,98.7,15 M116.9,17.1h-4.7c-2.6,0-4.7-2.2-4.7-4.9c0-2.7,2.1-4.9,4.7-4.9s4.7,2.2,4.7,4.9V17.1z M112.2,18.5
			h6.1v-1.2v0v-5.1c0-3.5-2.7-6.3-6.1-6.3c-3.4,0-6.1,2.8-6.1,6.3c0,2.1,1,3.9,2.4,5.1l5.8,0h-5.8C109.5,18,110.8,18.5,112.2,18.5
			 M120.2,17.3h-0.7v2.6h-7.4c-2.2,0-4.2-1-5.6-2.6h0c-1.1-1.4-1.8-3.1-1.8-5.1c0-4.3,3.3-7.7,7.4-7.7c4.1,0,7.4,3.5,7.4,7.7v5.1
			L120.2,17.3z M138.4,12.2c0-5-3.9-9.1-8.8-9.1h-3.4c-0.9,0-0.9,1.4,0,1.4h3.4c4.1,0,7.4,3.5,7.4,7.7c0,1.9-0.7,3.7-1.8,5.1l1.6,0
			h-1.6c-1.4,1.6-3.4,2.6-5.6,2.6h-8.8v-2.6v0v-5.1c0-5-3.9-9.1-8.8-9.1c-4.8,0-8.8,4.1-8.8,9.1c0,1.9,0.5,3.6,1.5,5.1l0.4,0h-0.4
			c1.6,2.4,4.3,4.1,7.3,4.1h7.4v4.9c0,0.9,1.3,0.9,1.3,0v-4.9h8.8c3,0,5.7-1.6,7.3-4.1C137.9,15.8,138.4,14.1,138.4,12.2
			 M139.8,12.2c0,5.8-4.5,10.5-10.1,10.5h-7.4v3.5c0,1.4-1,2.1-2,2.1c-1.1,0-2-0.7-2-2.1v-3.5h-6.1c-5.6,0-10.1-4.7-10.1-10.5
			c0-5.8,4.5-10.5,10.1-10.5c5.6,0,10.1,4.7,10.1,10.5v6.3h7.4c3.4,0,6.1-2.8,6.1-6.3c0-3.5-2.7-6.3-6.1-6.3h-3.4c-1.4,0-2-1-2-2.1
			c0-1.1,0.7-2.1,2-2.1h3.4C135.3,1.7,139.8,6.4,139.8,12.2 M141.1,12.2c0-6.6-5.1-11.9-11.5-11.9h-3.4c-2.2,0-3.4,1.8-3.4,3.5
			s1.1,3.5,3.4,3.5h3.4c2.6,0,4.7,2.2,4.7,4.9c0,2.7-2.1,4.9-4.7,4.9h-6.1v-4.9c0-6.6-5.1-11.9-11.5-11.9c-6.3,0-11.5,5.3-11.5,11.9
			c0,6.6,5.1,11.9,11.5,11.9h4.7v2.1c0,2.3,1.7,3.5,3.4,3.5c1.6,0,3.4-1.2,3.4-3.5v-2.1h6.1C136,24.1,141.1,18.8,141.1,12.2"/>
	</g>
	<circle class="st1" cx="149.5" cy="12.3" r="5"/>
</g>
</svg>
