<?xml version="1.0" standalone="no"?>
<!DOCTYPE svg PUBLIC "-//W3C//DTD SVG 20010904//EN"
 "http://www.w3.org/TR/2001/REC-SVG-20010904/DTD/svg10.dtd">
<svg version="1.0" xmlns="http://www.w3.org/2000/svg"
 width="567.000000pt" height="567.000000pt" viewBox="0 0 567.000000 567.000000"
 preserveAspectRatio="xMidYMid meet">
<metadata>
Created by potrace 1.15, written by Peter Selinger 2001-2017
</metadata>
<g transform="translate(0.000000,567.000000) scale(0.100000,-0.100000)"
fill="#000000" stroke="none">
<path d="M2631 3375 c-170 -32 -328 -150 -401 -299 -40 -82 -60 -156 -60 -227
0 -30 -4 -39 -17 -39 -36 0 -122 -60 -155 -107 -30 -43 -33 -55 -33 -120 0
-77 13 -106 68 -147 32 -23 94 -26 131 -6 27 14 56 65 56 98 0 59 -61 112
-111 97 -52 -17 -62 -97 -14 -115 28 -11 70 1 78 22 3 7 6 1 6 -14 1 -33 -40
-68 -79 -68 -55 0 -110 70 -110 141 0 71 80 167 156 188 28 7 29 6 42 -43 20
-81 67 -167 128 -234 l57 -63 -24 -26 c-13 -14 -51 -39 -84 -54 -52 -25 -72
-29 -149 -29 -112 0 -211 32 -386 125 -148 79 -156 85 -109 85 19 0 61 7 94
15 187 49 310 190 322 372 15 212 -117 382 -340 439 -113 29 -258 3 -369 -66
l-48 -29 0 49 0 50 -93 0 c-77 0 -94 -3 -94 -15 0 -10 10 -15 28 -15 15 0 36
-8 48 -17 21 -18 21 -22 21 -473 l1 -455 -46 -3 c-30 -2 -45 -7 -42 -15 2 -8
50 -13 160 -15 135 -2 157 0 157 13 0 10 -10 15 -34 15 -50 0 -93 18 -100 43
-7 27 -8 167 -1 167 3 0 67 -31 143 -69 211 -106 354 -169 471 -208 192 -64
345 -46 453 55 l48 45 68 -31 c86 -39 129 -50 223 -58 95 -8 218 15 309 58 90
43 215 168 258 259 110 231 30 508 -185 645 -117 76 -295 107 -442 79z m222
-50 c88 -23 156 -62 217 -124 192 -197 199 -501 15 -686 -99 -98 -217 -141
-369 -133 -97 6 -176 33 -242 83 -31 24 -31 25 -27 92 4 56 1 78 -17 121 -25
58 -71 104 -124 123 -29 10 -37 20 -42 45 -16 89 48 273 119 342 l34 33 -18
-53 c-50 -144 8 -316 137 -404 127 -88 277 -33 243 90 -26 93 -167 100 -205
10 -14 -34 -15 -34 -40 -18 -58 38 -114 151 -114 230 0 61 35 148 72 179 89
75 234 103 361 70z m-1118 -39 c76 -38 149 -110 183 -184 24 -50 27 -69 27
-162 0 -94 -3 -111 -27 -161 -81 -164 -266 -237 -449 -179 -40 13 -98 41 -131
63 l-58 39 2 255 3 256 36 29 c20 16 62 40 95 54 52 21 72 24 159 22 87 -3
108 -7 160 -32z m596 -529 c51 -34 88 -109 89 -179 0 -32 -4 -58 -9 -58 -11 0
-71 81 -94 125 -8 17 -22 54 -30 83 -18 61 -11 66 44 29z"/>
<path d="M3230 3275 c0 -74 3 -95 14 -95 7 0 16 12 19 28 10 46 45 91 84 108
30 14 78 18 226 22 l189 4 -12 -22 c-9 -18 -363 -581 -571 -911 -16 -25 -29
-49 -29 -52 0 -4 182 -7 405 -7 398 0 405 0 405 20 0 18 -7 20 -55 20 -94 0
-134 34 -120 101 6 27 75 223 107 302 l11 28 144 -3 145 -3 84 -205 c46 -112
84 -209 84 -215 0 -6 -24 -10 -57 -10 -36 0 -58 -4 -60 -12 -4 -10 34 -13 166
-13 111 0 171 4 171 10 0 11 -7 14 -53 25 -16 3 -39 17 -52 31 -14 15 -99 215
-207 485 -158 396 -186 459 -202 457 -16 -2 -52 -90 -192 -468 -134 -360 -179
-470 -199 -487 -25 -22 -34 -23 -206 -23 -98 0 -179 2 -179 4 0 2 137 220 305
485 168 264 305 483 305 486 0 3 -151 5 -335 5 l-335 0 0 -95z m878 -240 c33
-82 62 -156 64 -163 2 -11 -22 -13 -122 -12 -68 0 -126 2 -127 4 -2 2 22 78
53 170 31 92 60 164 64 159 5 -4 35 -75 68 -158z"/>
</g>
</svg>
